HIERARCHY
ROOT Hips
{
	OFFSET -3.958830 18.904000 13.208200
	CHANNELS 6 Xposition Yposition Zposition Zrotation Yrotation Xrotation 
	JOINT LHipJoint
	{
		OFFSET 0.000000 0.000000 0.000000
		CHANNELS 3 Zrotation Yrotation Xrotation
		JOINT LeftUpLeg
		{
			OFFSET 1.800000 -1.400000 0.085000
			CHANNELS 3 Zrotation Yrotation Xrotation
			JOINT LeftLeg
			{
				OFFSET 2.215000 -6.000000 0.000000
				CHANNELS 3 Zrotation Yrotation Xrotation
				JOINT LeftFoot
				{
					OFFSET 2.500000 -6.900000 0.000000
					CHANNELS 3 Zrotation Yrotation Xrotation
					JOINT LeftToeBase
					{
						OFFSET 0.200000 -0.500000 1.950000
						CHANNELS 3 Zrotation Yrotation Xrotation
						End Site
						{
							OFFSET 0.000000 0.000000 0.000000
						}
					}
				}
			}
		}
	}
	JOINT RHipJoint
	{
		OFFSET 0.000000 0.000000 0.000000
		CHANNELS 3 Zrotation Yrotation Xrotation
		JOINT RightUpLeg
		{
			OFFSET -1.800000 -1.400000 0.085000
			CHANNELS 3 Zrotation Yrotation Xrotation
			JOINT RightLeg
			{
				OFFSET -2.215000 -6.000000 0.000000
				CHANNELS 3 Zrotation Yrotation Xrotation
				JOINT RightFoot
				{
					OFFSET -2.500000 -6.900000 0.000000
					CHANNELS 3 Zrotation Yrotation Xrotation
					JOINT RightToeBase
					{
						OFFSET -0.200000 -0.500000 1.950000
						CHANNELS 3 Zrotation Yrotation Xrotation
						End Site
						{
							OFFSET 0.000000 0.000000 0.000000
						}
					}
				}
			}
		}
	}
	JOINT LowerBack
	{
		OFFSET 0.000000 0.000000 0.000000
		CHANNELS 3 Zrotation Yrotation Xrotation
		JOINT Spine
		{
			OFFSET -0.087000 1.940000 -0.288900
			CHANNELS 3 Zrotation Yrotation Xrotation
			JOINT Spine1
			{
				OFFSET 0.000000 1.950000 0.060000
				CHANNELS 3 Zrotation Yrotation Xrotation
				JOINT Neck
				{
					OFFSET 0.000000 0.000000 0.000000
					CHANNELS 3 Zrotation Yrotation Xrotation
					JOINT Neck1
					{
						OFFSET 0.000000 1.600000 0.340000
						CHANNELS 3 Zrotation Yrotation Xrotation
						JOINT Head
						{
							OFFSET 0.000000 1.667000 -0.240000
							CHANNELS 3 Zrotation Yrotation Xrotation
							End Site
							{
								OFFSET 0.000000 0.000000 0.000000
							}
						}
					}
				}
				JOINT LeftShoulder
				{
					OFFSET 0.000000 0.000000 0.000000
					CHANNELS 3 Zrotation Yrotation Xrotation
					JOINT LeftArm
					{
						OFFSET 2.700000 1.550000 -0.730000
						CHANNELS 3 Zrotation Yrotation Xrotation
						JOINT LeftForeArm
						{
							OFFSET 5.450000 0.000000 0.000000
							CHANNELS 3 Zrotation Yrotation Xrotation
							JOINT LeftHand
							{
								OFFSET 3.450000 0.000000 0.000000
								CHANNELS 3 Zrotation Yrotation Xrotation
								JOINT LeftHandIndex1
								{
									OFFSET 0.750000 0.000000 0.000000
									CHANNELS 3 Zrotation Yrotation Xrotation
									End Site
									{
										OFFSET 0.000000 0.000000 0.000000
									}
								}
							}
						}
					}
				}
				JOINT RightShoulder
				{
					OFFSET 0.000000 0.000000 0.000000
					CHANNELS 3 Zrotation Yrotation Xrotation
					JOINT RightArm
					{
						OFFSET -2.700000 1.550000 -0.730000
						CHANNELS 3 Zrotation Yrotation Xrotation
						JOINT RightForeArm
						{
							OFFSET -5.450000 0.000000 0.000000
							CHANNELS 3 Zrotation Yrotation Xrotation
							JOINT RightHand
							{
								OFFSET -3.450000 0.000000 0.000000
								CHANNELS 3 Zrotation Yrotation Xrotation
								JOINT RightHandIndex1
								{
									OFFSET -0.750000 0.000000 0.000000
									CHANNELS 3 Zrotation Yrotation Xrotation
									End Site
									{
										OFFSET 0.000000 0.000000 0.000000
									}
								}
							}
						}
					}
				}
			}
		}
	}
}
MOTION
Frames: 8
Frame Time: 0.016667
-1.593350 18.268560 -6.154340 -10.725508 46.505731 -1.452284 -15.641558 12.936820 3.447629 0.854054 -0.614429 -5.463064 -9.966262 3.858341 -1.677351 -0.089710 3.782899 3.262700 0.127310 0.026660 0.139970 17.902066 -9.557223 4.247983 17.564831 6.817985 -31.087744 -1.274581 -1.993578 15.340937 -0.060708 -1.283389 3.727487 -0.038480 0.046390 0.255810 -3.167775 -2.388042 -9.005982 -1.013599 -4.753269 21.473936 -1.972947 -4.505254 9.200775 0.990429 9.876023 -20.944902 18.119183 -10.752825 52.242203 5.099130 -5.008150 -6.186860 -25.254849 -36.933998 13.157711 -29.584651 -13.488045 0.164754 1.519280 -6.632523 -0.748061 -3.687708 2.805591 0.478050 -0.062630 0.297090 0.040380 21.709437 31.028813 10.514582 51.383300 15.565388 -8.847354 35.807655 42.545804 7.020892 2.362956 -1.406899 -0.041400 0.133640 0.072360 -0.041990 
-1.537730 18.163520 -6.176840 -8.267415 45.721655 0.829189 -15.641155 12.851425 3.599204 -1.635970 -0.510970 -5.383458 -9.943973 3.647530 -2.381338 -0.129334 3.666898 3.270703 0.173040 0.054640 0.217400 17.877383 -9.842487 4.047145 16.081724 5.056990 -27.746871 1.556201 -2.099435 7.230694 -0.059578 -1.071633 3.785620 -0.014510 -0.018250 0.261760 -3.138530 -1.968861 -9.056491 -1.884106 -2.994649 19.191950 -2.457385 -2.692671 11.145804 0.822789 10.191262 -24.016217 20.071349 -11.945256 55.430053 4.230830 -4.394720 -5.537350 -24.953622 -41.008866 14.332431 -28.656915 -16.707114 1.128146 1.564132 -4.521407 -0.691365 -3.720947 2.751207 0.511820 -0.089870 0.330460 0.014580 21.268811 35.808334 11.187986 53.876986 19.225981 -6.255786 23.091637 33.202843 2.340554 2.326906 -1.324031 -0.036710 0.108720 0.055390 -0.080970 
-1.474660 18.089970 -6.181990 -7.227591 48.945946 1.801584 -15.595099 12.678599 3.715299 -1.831621 -0.480166 -3.939522 -10.858576 3.543916 -3.573697 -0.095918 3.800358 3.212164 0.208600 0.094160 0.224860 17.905891 -10.015486 3.996430 14.586321 4.293367 -26.949222 3.241495 -2.037297 2.568902 -0.086739 -1.070179 3.775113 0.013040 -0.038550 0.255190 -3.428672 -1.483155 -9.229943 -0.246988 -2.841268 17.890069 -4.452972 -1.810384 13.477308 0.773119 10.256733 -27.228918 21.622839 -14.096052 57.944599 5.458720 -6.483720 -5.563370 -23.810224 -44.884700 15.840892 -27.884595 -19.883774 1.272440 1.907561 -5.527011 -0.732489 -3.690977 2.731567 0.529230 -0.120950 0.348080 0.019090 19.439118 40.269674 11.601047 55.156540 24.139686 -2.226699 14.223247 25.232209 0.684752 2.323681 -1.274351 -0.026640 0.118750 0.050810 -0.073620 
-1.444350 18.044550 -6.213270 -6.149355 51.642253 3.802821 -15.540513 12.524851 3.766215 -2.508672 -0.689231 -4.845796 -11.211249 3.375911 -3.803178 -0.090560 3.694851 3.257907 0.185650 0.089740 0.134240 17.938455 -10.169629 4.037287 14.225254 4.048646 -28.080264 2.735676 -1.828560 0.557454 -0.043398 -1.035079 3.812176 0.011990 0.011070 0.240870 -3.678272 -1.083739 -9.371070 1.302328 -2.376452 16.995634 -5.191059 -0.868736 14.892505 0.436697 9.698141 -29.223246 20.245270 -15.584536 57.852921 6.524670 -10.157120 -4.915540 -21.786499 -47.758074 16.585308 -28.689921 -24.650141 1.620773 3.267691 -5.821566 -0.837794 -3.720291 2.745452 0.477470 -0.111750 0.304230 0.046020 17.745115 43.653005 12.199409 56.117644 27.575665 0.222318 7.711625 20.051536 0.079352 2.319909 -1.314973 -0.013130 0.134580 0.070740 -0.017110 
-1.419020 18.049060 -6.261510 -4.917078 54.489967 5.410283 -15.516288 12.585605 3.772151 -3.532589 -0.717491 -6.324501 -10.776204 3.510934 -2.247829 -0.133204 3.522400 3.329435 0.188530 0.096560 0.093040 17.912111 -10.308054 4.065211 13.032180 3.918674 -29.770109 1.955698 -1.716708 0.784161 0.004219 -0.986342 3.834804 0.029060 0.063620 0.243110 -3.808006 -1.022281 -9.429425 2.278471 -2.433890 16.724024 -5.530203 -0.673009 17.031110 0.486536 9.258657 -30.776107 18.786801 -14.734629 57.009894 7.253960 -10.868280 -4.381220 -19.442278 -50.015816 17.610877 -29.289846 -30.239033 2.922945 5.286341 -2.018354 -0.853470 -3.878992 2.757743 0.426180 -0.086050 0.259880 0.074780 15.009306 45.976691 12.062274 54.640556 33.004623 3.659503 3.100840 13.922287 0.285583 2.368563 -1.383010 -0.009800 0.140220 0.073680 0.016080 
-1.378580 18.084480 -6.287650 -4.211845 56.327920 6.370101 -15.500886 12.664517 3.806293 -3.704111 -0.759710 -7.125905 -11.366596 3.721992 -1.267336 -0.100281 3.516897 3.347231 0.178160 0.098700 0.026240 17.889475 -10.336012 4.079340 11.635039 3.940894 -30.753841 1.900075 -1.686220 1.046630 0.045508 -0.992650 3.848146 0.032210 0.116330 0.248510 -3.925125 -1.169791 -9.518689 3.762523 -2.814870 16.775819 -5.606115 -0.825858 18.762659 0.743353 8.299446 -31.459282 15.492319 -12.837660 56.302007 7.393960 -11.349490 -3.336890 -18.234321 -50.778390 18.216208 -30.053807 -33.623826 3.583218 6.282616 -1.100144 -0.826099 -3.930991 2.844930 0.357960 -0.056800 0.211920 0.110970 13.307548 47.150602 12.278076 50.048703 36.002348 5.808009 1.780482 10.130896 0.654897 2.459191 -1.373692 0.007000 0.128270 0.075270 0.062360 
-1.341370 18.119250 -6.292530 -3.928466 57.648337 6.944348 -15.499157 12.679883 3.770189 -3.516353 -0.814371 -7.798820 -11.901151 3.928604 -0.415256 -0.096924 3.551689 3.345626 0.174360 0.108230 0.007820 17.891638 -10.329502 4.044738 10.691942 4.023885 -31.312398 1.607654 -1.666082 1.509725 0.074359 -1.017019 3.841864 0.048320 0.145060 0.259600 -3.959207 -1.218499 -9.417406 4.595628 -3.188968 16.441412 -6.287924 -1.083009 19.005836 1.635363 8.478612 -30.126193 15.202812 -12.717807 53.950661 5.850090 -11.355660 -3.092660 -19.338098 -49.643783 18.220603 -31.205932 -35.122015 3.810761 6.160088 -2.846974 -0.909034 -3.924236 2.904067 0.300990 -0.017360 0.179160 0.120680 12.717727 46.350875 11.665644 47.913925 36.787788 7.342709 1.773459 8.541774 0.772983 2.515326 -1.351341 0.014670 0.122760 0.075780 0.079320 
-1.310860 18.148250 -6.296990 -3.848049 58.225519 6.862424 -15.504686 12.689672 3.767845 -3.030331 -0.824417 -7.644368 -12.665887 4.056645 -0.393298 -0.090671 3.674983 3.313027 0.176400 0.112040 0.008220 17.893425 -10.297440 3.991862 10.089345 4.008087 -31.020626 1.570091 -1.677407 1.763653 0.079609 -1.051799 3.829294 0.064700 0.161340 0.254800 -3.992046 -1.303835 -9.369608 4.912329 -3.919679 16.255224 -7.270469 -1.621874 19.611637 2.385214 8.629295 -29.580548 15.347434 -12.626374 53.729059 5.140770 -11.259920 -3.058690 -18.852826 -49.358113 18.425713 -31.477528 -35.489986 4.608008 5.518644 -1.709753 -0.753603 -3.967422 2.882418 0.287200 -0.002210 0.162620 0.124020 10.704511 46.081186 11.037964 46.187392 38.494850 9.129527 2.489377 7.002925 0.995596 2.569701 -1.295672 0.002710 0.138990 0.078880 0.079060 
